<?xml version="1.0" encoding="UTF-8" standalone="no"?><svg xmlns="http://www.w3.org/2000/svg" xmlns:xlink="http://www.w3.org/1999/xlink" fill="#000000" height="812.8" id="Text" preserveAspectRatio="xMidYMid meet" version="1.1" viewBox="281.9 93.5 431.8 812.8" width="431.8" x="0" xml:space="preserve" y="0" zoomAndPan="magnify"><g id="change1_1"><path d="M713.08,344.22c-1.25,21.93-20.41,38-42.55,31.09c-11.13-3.47-20.89-9.09-29-17.35 c-10.9-11.11-23.85-19.72-35.67-29.71c-12.64-10.7-23.28-23.02-33.55-35.81c-18.25-22.71-37.11-44.89-56.28-66.83 c-15.25-17.46-31.08-34.54-42.67-54.89c-6.06-10.64-7.47-22.74-10.8-34.2c-1.85-6.35,0.89-12.77,4.65-18.03 c10.39-14.55,23.26-25.04,43.18-23.71c13.09-1.14,24.85,4.35,36.04,11.12c25.05,15.16,45.27,35.71,64.13,57.84 c16.7,19.59,33.64,39.01,47.28,60.89c18.18,29.17,36.09,58.48,48.12,91.03C709.44,325.1,713.68,333.69,713.08,344.22z M556.43,483.56c-9.95-3.81-20.37-6.13-29.81-11.57c-24.46-14.1-49.87-26.33-76.47-35.92c-18.41-6.64-37.42-11.15-56.52-15.25 c-22.15-4.75-44.27-6.2-66.6-0.27c-36.42,9.67-45.16,44.14-37.74,72.23c3.31,12.55,14.42,16.85,25.14,21.07 c20.41,8.04,42.25,10.6,63.38,15.8c27.78,6.83,55.42,14.31,83.45,20.23c20.28,4.29,40.58,6.97,59.95,7.82 c10.65-0.55,20.23-0.67,28.78,3.4c11.16,5.31,32.61-1.3,41.1-12.99c4.3-5.92,7.5-12.46,5.74-20.33 C591.8,505.3,577.33,491.57,556.43,483.56z M564.92,728.54c-0.32-3.37-3.51-5.19-4.79-8.14c-3.95-9.05-13.35-12.91-22.02-8.6 c-8.75,4.35-17.4,9.04-25.66,14.26c-39.11,24.73-70.87,57.69-101.17,92.07c-12.02,13.64-22.41,28.62-25.93,47.33 c-2.79,14.8,2.72,27.07,15.97,34.05c8.1,4.26,16.88,4.94,25.6,5.71c11.6,1.03,21.19-3.14,29.04-11.99 c6.53-7.36,11.99-15.46,17.61-23.44c10.15-14.39,23.93-25.73,34.04-39.95c16.86-23.71,32.81-48.07,49.74-71.76 c4.5-6.3,9.09-13.34,7.61-22.66C564.97,733.54,565.16,731.02,564.92,728.54z M598.46,395.82c-20.25-8.8-37.09-23.66-57.75-31.82 c-11.44-4.52-22.33-10.41-35.34-8.95c-9.92-1.06-19.16,0.54-25.12,9.72c-6.63,10.2-4.93,20.26,5.32,30.47 c22.51,22.41,50.08,35.87,80.23,44.57c5,1.44,10.24,2.16,15.15,3.85c6.41,2.2,12.67,1.32,18.06-1.71 c12.13-6.82,13.19-16.76,10.09-30.95C607.75,404.85,604.85,398.6,598.46,395.82z M468.09,695.88c16.03,0,29.76-3.2,45.33-10.66 c8.63-4.13,17.41-7.73,26.67-10.35c16.27-4.62,24.04-22.72,16.57-37.51c-0.59-1.17-1.01-2.51-1.14-3.8 c-1.16-11.12-8.63-16.9-19.05-13.97c-18.84,5.3-38.26,6.65-57.51,9.3c-14.34,1.98-28.31,5.35-38.42,16.95 c-5,5.74-9.24,12.24-8.14,20.23C434.63,682.34,451.18,695.88,468.09,695.88z" fill="#34485c"/></g></svg>